#!OML:ASF H:\ManfredETheater\Project 1\Capture day 1\Session 1\subject.ASF
:FULLY-SPECIFIED
:DEGREES
278
root -12.2162 17.5566 -34.8234 -169.018 -25.5533 178.685
lowerback 6.4137 0.60759 -0.991326
upperback -2.64467 0.77191 1.1145
thorax -6.39028 0.438484 1.63009
lowerneck -18.4493 -1.08371 -2.70299
upperneck 17.4856 -0.507141 -1.75459
head 8.49839 -0.667782 -0.221591
rclavicle 2.43014e-014 1.94809e-014
rhumerus -40.5974 6.45806 -92.1965
rradius 61.3907
rwrist -4.27637
rhand -22.9098 2.32361
rfingers 7.12502
rthumb 3.53021 -27.6269
lclavicle 2.43014e-014 1.94809e-014
lhumerus -44.9465 -0.383762 91.6865
lradius 49.8999
lwrist -0.0223237
lhand -13.2578 -1.80092
lfingers 7.12502
lthumb 12.8447 27.7839
rfemur -22.098 -0.855549 19.2733
rtibia 45.7134
rfoot -25.515 -14.5878
rtoes -28.9815
lfemur -22.5068 -6.93936 -23.1658
ltibia 45.5204
lfoot -31.5415 -3.26408
ltoes 8.77671
279
root -12.2573 17.5394 -34.8938 -168.646 -25.5445 178.319
lowerback 6.58808 0.579555 -1.20865
upperback -2.59246 0.710133 1.00329
thorax -6.43437 0.415986 1.64232
lowerneck -18.4194 -1.10392 -2.72739
upperneck 16.9457 -0.54524 -1.63296
head 8.31054 -0.658408 -0.177148
rclavicle -1.33186e-014 -7.55382e-015
rhumerus -40.8051 6.53535 -92.3672
rradius 62.3547
rwrist -4.40576
rhand -22.9164 2.82039
rfingers 7.12502
rthumb 3.52383 -27.1302
lclavicle -1.33186e-014 -7.55382e-015
lhumerus -44.9676 -0.958546 92.0057
lradius 50.8987
lwrist 0.530054
lhand -13.3594 -1.70688
lfingers 7.12502
lthumb 12.7467 27.884
rfemur -22.8793 -1.17348 18.9944
rtibia 47.2675
rfoot -25.2239 -14.7408
rtoes -28.7673
lfemur -22.3555 -6.71869 -23.5537
ltibia 45.3763
lfoot -31.831 -3.52923
ltoes 8.76211
280
root -12.299 17.5227 -34.9661 -168.293 -25.5271 177.982
lowerback 6.76865 0.544936 -1.39634
upperback -2.53094 0.641259 0.897162
thorax -6.47135 0.388598 1.64426
lowerneck -18.3889 -1.11836 -2.75578
upperneck 16.3859 -0.576362 -1.50389
head 8.11697 -0.645802 -0.129073
rclavicle 3.63776e-014 -1.15295e-014
rhumerus -40.997 6.54238 -92.5263
rradius 63.1996
rwrist -4.58818
rhand -22.9591 3.31455
rfingers 7.12502
rthumb 3.48262 -26.6367
lclavicle 3.63776e-014 -1.15295e-014
lhumerus -44.9529 -1.51908 92.3135
lradius 51.8689
lwrist 0.997552
lhand -13.4774 -1.63311
lfingers 7.12502
lthumb 12.633 27.9649
rfemur -23.7097 -1.50355 18.752
rtibia 48.9075
rfoot -24.8523 -14.9228
rtoes -28.6189
lfemur -22.1793 -6.53039 -23.9159
ltibia 45.2219
lfoot -32.116 -3.74751
ltoes 8.70375
281
root -12.3415 17.5063 -35.0405 -167.959 -25.4964 177.681
lowerback 6.94538 0.504918 -1.54573
upperback -2.46564 0.567968 0.797241
thorax -6.50135 0.35729 1.63197
lowerneck -18.3352 -1.12409 -2.77902
upperneck 15.7989 -0.598497 -1.37668
head 7.91129 -0.629421 -0.0816427
rclavicle 6.32135e-014 3.97569e-016
rhumerus -41.1837 6.48393 -92.6763
rradius 63.9169
rwrist -4.83112
rhand -23.0361 3.78572
rfingers 7.12502
rthumb 3.40828 -26.1668
lclavicle 6.32135e-014 3.97569e-016
lhumerus -44.9084 -2.0637 92.6074
lradius 52.8001
lwrist 1.38962
lhand -13.6104 -1.58302
lfingers 7.12502
lthumb 12.5048 28.0228
rfemur -24.5921 -1.84084 18.5525
rtibia 50.6085
rfoot -24.3906 -15.1429
rtoes -28.5429
lfemur -21.9841 -6.37742 -24.245
ltibia 45.0587
lfoot -32.3992 -3.90973
ltoes 8.61985
282
root -12.385 17.4905 -35.1173 -167.644 -25.4606 177.414
lowerback 7.12343 0.458788 -1.65864
upperback -2.39077 0.489585 0.705264
thorax -6.52133 0.32183 1.60837
lowerneck -18.3002 -1.12202 -2.80255
upperneck 15.2059 -0.609467 -1.25148
head 7.70794 -0.609045 -0.0341424
rclavicle 5.6753e-014 -4.77083e-015
rhumerus -41.3506 6.36573 -92.8066
rradius 64.4973
rwrist -5.13853
rhand -23.1445 4.21269
rfingers 7.12502
rthumb 3.30359 -25.7415
lclavicle 5.6753e-014 -4.77083e-015
lhumerus -44.814 -2.59511 92.8926
lradius 53.6792
lwrist 1.72265
lhand -13.7515 -1.60743
lfingers 7.12502
lthumb 12.3687 28.0067
rfemur -25.5167 -2.1847 18.3922
rtibia 52.3414
rfoot -23.8601 -15.3911
rtoes -28.4888
lfemur -21.7664 -6.25236 -24.5439
ltibia 44.8854
lfoot -32.6757 -4.0284
ltoes 8.49435
283
root -12.4293 17.475 -35.1967 -167.343 -25.42 177.18
lowerback 7.29638 0.406564 -1.74397
upperback -2.30839 0.405793 0.624723
thorax -6.52995 0.282505 1.58221
lowerneck -18.2778 -1.11264 -2.8322
upperneck 14.6071 -0.609607 -1.12483
head 7.50586 -0.584862 0.01548
rclavicle -7.196e-014 -8.74653e-015
rhumerus -41.5023 6.19676 -92.9133
rradius 64.9418
rwrist -5.50155
rhand -23.2746 4.57018
rfingers 7.12502
rthumb 3.17789 -25.3859
lclavicle -7.196e-014 -8.74653e-015
lhumerus -44.6803 -3.10933 93.1715
lradius 54.5224
lwrist 2.01251
lhand -13.8931 -1.69968
lfingers 7.12502
lthumb 12.2322 27.9226
rfemur -26.4855 -2.52989 18.2715
rtibia 54.0758
rfoot -23.3113 -15.6366
rtoes -28.427
lfemur -21.5327 -6.15155 -24.811
ltibia 44.702
lfoot -32.9455 -4.10531
ltoes 8.34158
284
root -12.4745 17.4599 -35.279 -167.047 -25.3812 176.966
lowerback 7.45862 0.345582 -1.81175
upperback -2.22329 0.312141 0.553114
thorax -6.52901 0.237539 1.55712
lowerneck -18.2564 -1.09281 -2.85236
upperneck 14.0017 -0.596689 -1.01295
head 7.30258 -0.556539 0.0596397
rclavicle -4.48259e-014 -9.93923e-015
rhumerus -41.6491 5.98553 -92.9957
rradius 65.253
rwrist -5.90965
rhand -23.4259 4.84504
rfingers 7.12502
rthumb 3.03181 -25.1132
lclavicle -4.48259e-014 -9.93923e-015
lhumerus -44.5113 -3.61243 93.4474
lradius 55.3233
lwrist 2.27415
lhand -14.0448 -1.86735
lfingers 7.12502
lthumb 12.0859 27.7636
rfemur -27.4959 -2.8825 18.1782
rtibia 55.7829
rfoot -22.8016 -15.8552
rtoes -28.3657
lfemur -21.2847 -6.07572 -25.0577
ltibia 44.5044
lfoot -33.2115 -4.15154
ltoes 8.18767
285
root -12.5205 17.4452 -35.3644 -166.757 -25.3491 176.778
lowerback 7.61917 0.276516 -1.85821
upperback -2.14487 0.209864 0.491342
thorax -6.53372 0.187635 1.53176
lowerneck -18.2294 -1.06309 -2.87218
upperneck 13.4028 -0.571541 -0.904221
head 7.10134 -0.52401 0.10353
rclavicle 8.94531e-015 3.18055e-015
rhumerus -41.8092 5.73648 -93.0549
rradius 65.4343
rwrist -6.34763
rhand -23.5854 5.01389
rfingers 7.12502
rthumb 2.87771 -24.9464
lclavicle 8.94531e-015 3.18055e-015
lhumerus -44.3242 -4.10813 93.7228
lradius 56.0868
lwrist 2.51171
lhand -14.2051 -2.11712
lfingers 7.12502
lthumb 11.9314 27.5229
rfemur -28.5431 -3.23682 18.1193
rtibia 57.4344
rfoot -22.3724 -16.0258
rtoes -28.3152
lfemur -21.024 -6.00925 -25.2755
ltibia 44.2903
lfoot -33.4703 -4.18878
ltoes 8.02995
